<mxfile host="app.diagrams.net" modified="2023-09-03T03:12:07.229Z" agent="Mozilla/5.0 (Windows NT 10.0; Win64; x64) AppleWebKit/537.36 (KHTML, like Gecko) Chrome/116.0.0.0 Safari/537.36" version="21.6.9" etag="YWKFyAbEKKvRge4U1ad3" type="github">
  <diagram name="第 1 页" id="sQYKOK8LSdCzN7vWaRV6">
    <mxGraphModel>
      <root>
        <mxCell id="0" />
        <mxCell id="1" parent="0" />
      </root>
    </mxGraphModel>
  </diagram>
</mxfile>
